# xmcd
#
# Track frame offsets: 
#        150
#        10723
#        18728
#        39828
#        68072
#        88854
#        118629
#        123839
#        139286
#        149339
#        171839
#        187805
#        214655
#        220949
#        240977
#        263199
#
# Disc length: 3988 seconds
#
# Revision: 2
# Processed by: cddbd v1.5.2PL0 Copyright (c) Steve Scherf et al.
# Submitted via: ExactAudioCopy v1.0b1
#
DISCID=dd0f9210
DTITLE=Tribe After Tribe - M.O.A.B. Stories from Deuteronomy
DYEAR=2008
DGENRE=Metal
TTITLE0=YHVH Invokation
TTITLE1=Deuteronomy excerpt I
TTITLE2=Supreme One
TTITLE3=Burning Bush
TTITLE4=Truth And Reconciliation
TTITLE5=Exodus 2000
TTITLE6=Arafat Radio
TTITLE7=Holy City Warrior
TTITLE8=Lament
TTITLE9=Chiron
TTITLE10=Deuteronomy excerpt II
TTITLE11=Understanding The Water
TTITLE12=Deuteronomy excerpt III
TTITLE13=Shock And Awe
TTITLE14=Red Sky
TTITLE15=World Drum
EXTD=
EXTT0=
EXTT1=
EXTT2=
EXTT3=
EXTT4=
EXTT5=
EXTT6=
EXTT7=
EXTT8=
EXTT9=
EXTT10=
EXTT11=
EXTT12=
EXTT13=
EXTT14=
EXTT15=
PLAYORDER=
